<svg width="67" height="25" viewBox="0 0 67 25" fill="none" xmlns="http://www.w3.org/2000/svg">
<g clip-path="url(#clip0_19_98)">
<path d="M33.3087 8.15455L36.4888 7.95211C36.5582 8.47636 36.6985 8.87555 36.9098 9.14955C37.2549 9.59367 37.7469 9.81574 38.3856 9.81574C38.8621 9.81574 39.2299 9.70249 39.4888 9.47592C39.6073 9.38186 39.7036 9.26205 39.7706 9.12536C39.8375 8.98861 39.8735 8.83842 39.8758 8.6858C39.8739 8.53942 39.8404 8.3953 39.7777 8.26348C39.715 8.13161 39.6246 8.0153 39.5129 7.92261C39.271 7.69855 38.7004 7.4863 37.8013 7.28586C36.3352 6.95217 35.2897 6.50799 34.6647 5.95345C34.3606 5.69507 34.1177 5.37054 33.9541 5.00394C33.7906 4.63734 33.7106 4.23808 33.7199 3.8358C33.7223 3.26733 33.8906 2.7123 34.2038 2.24082C34.5615 1.70944 35.0667 1.29779 35.6554 1.05809C36.3005 0.770991 37.1876 0.627441 38.3166 0.627441C39.6988 0.627441 40.7528 0.88836 41.4786 1.41021C42.2044 1.93205 42.6362 2.76144 42.7741 3.89838L39.623 4.08487C39.5424 3.5941 39.3666 3.23503 39.0956 3.00764C38.8246 2.78025 38.4537 2.66697 37.9828 2.66779C37.5944 2.66779 37.3017 2.75245 37.1058 2.9193C37.0132 2.9915 36.9384 3.08445 36.8871 3.19089C36.8359 3.29732 36.8098 3.41434 36.8106 3.53276C36.8135 3.62466 36.8368 3.71472 36.8787 3.79627C36.9206 3.87782 36.9799 3.94877 37.0525 4.00389C37.2098 4.14867 37.5836 4.28363 38.1739 4.40877C39.6351 4.72777 40.6834 5.05085 41.3189 5.37803C41.9544 5.70521 42.4141 6.1105 42.6979 6.59392C42.9876 7.0843 43.1371 7.64673 43.1298 8.2183C43.1333 8.91048 42.9332 9.58792 42.5552 10.1642C42.1618 10.765 41.602 11.2345 40.9464 11.5138C40.2569 11.8205 39.3883 11.9739 38.3408 11.9739C36.5013 11.9739 35.2272 11.6148 34.5183 10.8967C33.8094 10.1785 33.4063 9.26449 33.3087 8.15455ZM0.758444 11.7899V0.812704H6.33006C7.36306 0.812704 8.15256 0.902266 8.6985 1.0814C9.23631 1.25562 9.70125 1.60714 10.0194 2.0801C10.3658 2.60506 10.5421 3.2265 10.5239 3.85789C10.5379 4.40887 10.4041 4.95338 10.1368 5.43324C9.88025 5.87808 9.517 6.24992 9.08075 6.51417C8.71406 6.7193 8.31825 6.8658 7.90744 6.94848C8.21481 7.0403 8.50769 7.17624 8.77713 7.35211C8.97744 7.52099 9.15763 7.71286 9.31425 7.92386C9.49038 8.13361 9.64638 8.35999 9.77994 8.59992L11.3984 11.7899H7.62075L5.83531 8.4318C5.6087 7.99749 5.40709 7.7153 5.23049 7.58524C4.98983 7.41611 4.70313 7.3273 4.41035 7.3313H4.11278V11.7899H0.758444ZM4.11278 5.25779H5.52564C5.82464 5.23515 6.12101 5.18505 6.41113 5.10811C6.62788 5.06593 6.82119 4.94293 6.953 4.76335C7.09238 4.58195 7.16663 4.35777 7.1635 4.12781C7.17256 3.97514 7.14738 3.82237 7.08975 3.68104C7.03213 3.53969 6.94356 3.41348 6.83081 3.31192C6.60988 3.12215 6.19417 3.02727 5.5837 3.02727H4.11278V5.25779ZM0 21.183L3.18014 20.9819C3.2495 21.5062 3.38982 21.9053 3.6011 22.1793C3.94222 22.6235 4.43535 22.8455 5.08049 22.8455C5.55709 22.8455 5.92482 22.7319 6.18369 22.5044C6.30225 22.4104 6.3985 22.2906 6.4655 22.1539C6.5325 22.0172 6.56844 21.867 6.57075 21.7143C6.56863 21.568 6.53506 21.4239 6.47238 21.2921C6.40969 21.1603 6.31944 21.044 6.20788 20.9512C5.96595 20.727 5.3954 20.5152 4.49624 20.3157C3.03015 19.9803 1.98462 19.5362 1.35964 18.9832C1.05555 18.7245 0.812738 18.3998 0.649206 18.033C0.485666 17.6662 0.405589 17.2668 0.414907 16.8644C0.417584 16.2959 0.585928 15.741 0.898763 15.2694C1.25643 14.738 1.76165 14.3264 2.35033 14.0866C2.99548 13.7995 3.88254 13.656 5.01154 13.656C6.39375 13.656 7.44775 13.9169 8.17356 14.4387C8.89931 14.9606 9.33119 15.79 9.46906 16.9269L6.324 17.1146C6.24336 16.6239 6.06756 16.2644 5.7966 16.0362C5.52564 15.808 5.15509 15.6959 4.68494 15.7C4.29705 15.7 4.00472 15.7818 3.80795 15.9454C3.71539 16.0176 3.64057 16.1105 3.58936 16.217C3.53816 16.3234 3.51195 16.4404 3.5128 16.5589C3.51556 16.651 3.53874 16.7412 3.58062 16.823C3.6225 16.9048 3.68201 16.976 3.75473 17.0312C3.91198 17.176 4.28576 17.3105 4.87606 17.4349C6.33731 17.7539 7.38569 18.0769 8.02113 18.4041C8.65656 18.7313 9.11625 19.1366 9.40013 19.62C9.68963 20.1104 9.83913 20.6728 9.83194 21.2444C9.83556 21.9366 9.6355 22.6141 9.25738 23.1903C8.86394 23.7911 8.30425 24.2607 7.64856 24.5399C6.95906 24.8466 6.09054 25 5.04299 25C3.20353 25 1.92938 24.6409 1.22053 23.9227C0.511678 23.2046 0.104836 22.2914 0 21.183ZM19.7171 20.323L22.6469 21.2211C22.4849 21.975 22.1679 22.6857 21.7167 23.3069C21.3055 23.8557 20.7648 24.2907 20.1441 24.5718C19.5168 24.8556 18.7184 24.9975 17.7491 24.9975C16.5733 24.9975 15.6128 24.8245 14.8677 24.4785C14.1226 24.1325 13.4774 23.5228 12.9323 22.6492C12.3904 21.7765 12.1198 20.6596 12.1206 19.2985C12.1206 17.4844 12.5964 16.0894 13.548 15.1135C14.4996 14.1377 15.8463 13.6502 17.5882 13.6511C18.9519 13.6511 20.0232 13.9308 20.8022 14.4903C21.5812 15.0497 22.1603 15.9086 22.5393 17.0668L19.5877 17.733C19.5184 17.4719 19.409 17.2235 19.2636 16.9969C19.0848 16.7451 18.8498 16.5399 18.5777 16.3981C18.2957 16.2556 17.9842 16.1837 17.6693 16.1883C16.912 16.1883 16.3318 16.4975 15.9286 17.1159C15.6221 17.5747 15.4693 18.2949 15.4701 19.2765C15.4701 20.4919 15.6524 21.3254 16.0169 21.7769C16.3814 22.2284 16.8931 22.4537 17.5519 22.4529C18.1906 22.4529 18.6744 22.2709 19.0034 21.9069C19.3325 21.543 19.5704 21.015 19.7171 20.323ZM25.2223 13.8412H28.5644V17.679H32.2176V13.8412H35.5743V24.8135H32.2176V20.3782H28.5644V24.8172H25.2223V13.8412ZM37.6549 19.3341C37.6549 17.5445 38.1468 16.1499 39.1307 15.1504C40.1145 14.1509 41.4854 13.6519 43.2434 13.6535C45.0434 13.6535 46.4304 14.1443 47.4046 15.1258C48.3788 16.1074 48.8671 17.4802 48.8695 19.2445C48.8695 20.5279 48.6566 21.5798 48.2308 22.4002C47.8164 23.2097 47.1744 23.8764 46.3861 24.3154C45.5797 24.7718 44.5773 25 43.3789 25C42.1596 25 41.1516 24.8029 40.3548 24.4086C39.5363 23.9972 38.8589 23.3452 38.4109 22.5376C37.9061 21.6853 37.6541 20.6175 37.6549 19.3341ZM40.9971 19.35C40.9971 20.4584 41.1988 21.2542 41.602 21.7376C42.0052 22.221 42.5576 22.4627 43.2592 22.4627C43.9777 22.4627 44.5338 22.2259 44.9273 21.7524C45.3208 21.2788 45.5176 20.4281 45.5176 19.2004C45.5176 18.1674 45.3119 17.4124 44.9007 16.9355C44.4894 16.4587 43.9321 16.2206 43.2289 16.2214C42.9232 16.2103 42.6189 16.2694 42.3389 16.3943C42.0588 16.5192 41.8102 16.7068 41.6116 16.9429C41.2028 17.4336 40.9979 18.236 40.9971 19.35Z" fill="white"/>
<path d="M47.4518 19.3341C47.4518 17.5445 47.9437 16.1499 48.9275 15.1504C49.9113 14.1509 51.2823 13.6519 53.0403 13.6536C54.8418 13.6536 56.2293 14.1443 57.2027 15.1258C58.176 16.1074 58.6627 17.4807 58.6627 19.2458C58.6627 20.5291 58.4502 21.581 58.0252 22.4014C57.6105 23.2108 56.9686 23.8773 56.1805 24.3166C55.3741 24.773 54.3717 25.0013 53.1733 25.0013C51.9532 25.0013 50.9452 24.8041 50.1493 24.4099C49.3306 23.9981 48.6529 23.3462 48.2042 22.5388C47.7026 21.6857 47.4518 20.6175 47.4518 19.3341ZM50.7952 19.3501C50.7952 20.4584 50.9968 21.2543 51.4 21.7376C51.8033 22.2211 52.3565 22.4632 53.0597 22.464C53.7782 22.464 54.3342 22.2272 54.7278 21.7536C55.1213 21.28 55.3181 20.4294 55.3181 19.2016C55.3181 18.1686 55.1128 17.4136 54.7023 16.9368C54.2919 16.4599 53.7347 16.2219 53.0307 16.2227C52.7243 16.2108 52.4194 16.2693 52.1387 16.3941C51.8579 16.5188 51.6087 16.7064 51.4097 16.9429C50.9992 17.4336 50.7944 18.2361 50.7952 19.3501Z" fill="white"/>
<path d="M58.3144 13.8411H61.6578V22.1117H66.875V24.8109H58.3144V13.8411Z" fill="white"/>
</g>
<defs>
<clipPath id="clip0_19_98">
<rect width="66.875" height="25" fill="white"/>
</clipPath>
</defs>
</svg>
